<?xml version="1.0" encoding="UTF-8"?>
<svg id="Capa_2" data-name="Capa 2" xmlns="http://www.w3.org/2000/svg" xmlns:xlink="http://www.w3.org/1999/xlink" viewBox="0 0 108.94 28.03">
  <defs>
    <style>
      .cls-1 {
        clip-path: url(#clippath-1);
      }

      .cls-2 {
        clip-path: url(#clippath-3);
      }

      .cls-3 {
        clip-path: url(#clippath-4);
      }

      .cls-4 {
        clip-path: url(#clippath-2);
      }

      .cls-5 {
        fill: #404041;
      }

      .cls-6 {
        clip-rule: evenodd;
        fill: none;
      }

      .cls-7 {
        fill: url(#Degradado_sin_nombre_5-2);
      }

      .cls-8 {
        fill: url(#Degradado_sin_nombre_5-3);
      }

      .cls-9 {
        fill: url(#Degradado_sin_nombre_5-4);
      }

      .cls-10 {
        fill: url(#Degradado_sin_nombre_5-5);
      }

      .cls-11 {
        fill: url(#Degradado_sin_nombre_5);
      }

      .cls-12 {
        clip-path: url(#clippath);
      }
    </style>
    <clipPath id="clippath">
      <path class="cls-6" d="M27.59,22.69c-.29,1.88-.79,3.41-1.47,4.64-4.85-1.67-7.94.69-12.28-.64,5.51.26,11.29-.18,13.75-4"/>
    </clipPath>
    <linearGradient id="Degradado_sin_nombre_5" data-name="Degradado sin nombre 5" x1="19.2" y1="20.88" x2="22.01" y2="29.21" gradientUnits="userSpaceOnUse">
      <stop offset="0" stop-color="#379dcd"/>
      <stop offset=".28" stop-color="#3ea3ac"/>
      <stop offset=".88" stop-color="#50b459"/>
      <stop offset="1" stop-color="#54b848"/>
    </linearGradient>
    <clipPath id="clippath-1">
      <path class="cls-6" d="M0,16.23v-5.39c9.25.77,27.23,3.61,31.2-2.54C29.13,21.79,9.01,16.74.15,16.52l-.15-.3Z"/>
    </clipPath>
    <linearGradient id="Degradado_sin_nombre_5-2" data-name="Degradado sin nombre 5" x1="12.46" y1="4.56" x2="17.59" y2="21.7" xlink:href="#Degradado_sin_nombre_5"/>
    <clipPath id="clippath-2">
      <path class="cls-6" d="M1.23,18.59l-.12-.23c6.95.55,24.36,3.39,28.56-3.14-1.7,11.13-12.73,10.17-21.41,9.36-.24-.44-.77-1.08-1.58-1.22-1.63-.29-1.82-.65-1.67-2.11.2-1.85-2.22-2.67-3.78-2.65"/>
    </clipPath>
    <linearGradient id="Degradado_sin_nombre_5-3" data-name="Degradado sin nombre 5" x1="12.18" y1="11.42" x2="18.2" y2="28.97" xlink:href="#Degradado_sin_nombre_5"/>
    <clipPath id="clippath-3">
      <path class="cls-6" d="M29.1,8.45c2.52-1.78,2.2-5.96,1.32-8.45h-5.73l4.41,8.45Z"/>
    </clipPath>
    <linearGradient id="Degradado_sin_nombre_5-4" data-name="Degradado sin nombre 5" x1="23.91" y1="1.03" x2="32.04" y2="7.15" xlink:href="#Degradado_sin_nombre_5"/>
    <clipPath id="clippath-4">
      <path class="cls-6" d="M18.46,10.88c.81.03,7.42-.43,8.84-1.6.51-.42.14-.81-.1-1.28L23.02,0h-10.24l5.68,10.88Z"/>
    </clipPath>
    <linearGradient id="Degradado_sin_nombre_5-5" data-name="Degradado sin nombre 5" x1="15.05" y1="-1.67" x2="25.44" y2="12.45" xlink:href="#Degradado_sin_nombre_5"/>
  </defs>
  <g id="Capa_1-2" data-name="Capa 1">
    <g>
      <path class="cls-5" d="M89.61,19.87h1.42v-.26h-1.42v-1.01h1.52v-.26h-1.81v2.93h1.86v-.26h-1.57v-1.13ZM86.48,18.6h.59c.88,0,1.31.6,1.31,1.2s-.43,1.2-1.31,1.2h-.59v-2.4ZM86.18,21.26h.97c.73,0,1.54-.49,1.54-1.46s-.81-1.46-1.54-1.46h-.97v2.93ZM83.43,18.34h-.3v2.93h1.66v-.26h-1.36v-2.66ZM81.3,18.67l.64,1.55h-1.29l.64-1.55ZM80.54,20.5h1.51l.32.77h.33l-1.26-2.93h-.29l-1.26,2.93h.33l.32-.77ZM77.46,18.34h-.37v2.93h.3v-2.52h0l1.7,2.52h.37v-2.93h-.3v2.49h0l-1.7-2.49ZM76.15,19.8c0,.68-.46,1.27-1.21,1.27s-1.21-.59-1.21-1.27.46-1.28,1.21-1.28,1.21.6,1.21,1.28ZM76.47,19.8c0-.89-.65-1.54-1.53-1.54s-1.53.65-1.53,1.54.65,1.54,1.53,1.54,1.53-.65,1.53-1.54ZM72.8,18.34h-.3v2.93h.3v-2.93ZM71.82,18.62c-.14-.19-.43-.36-.83-.36-.43,0-.93.24-.93.81,0,.53.4.7.79.82.37.12.71.22.71.63,0,.38-.35.57-.65.57s-.54-.16-.67-.37l-.26.19c.21.29.57.43.92.43.46,0,.95-.26.95-.84s-.45-.72-.87-.86c-.33-.11-.64-.2-.64-.57s.33-.55.62-.55.48.12.6.29l.24-.19ZM68.02,19.87h1.42v-.26h-1.42v-1.01h1.52v-.26h-1.81v2.93h1.86v-.26h-1.57v-1.13ZM65.69,19.88h1.36v-.26h-1.36v-1.02h1.47v-.26h-1.76v2.93h.3v-1.38ZM64.46,19.8c0,.68-.46,1.27-1.21,1.27s-1.21-.59-1.21-1.27.46-1.28,1.21-1.28,1.21.6,1.21,1.28ZM64.78,19.8c0-.89-.65-1.54-1.53-1.54s-1.53.65-1.53,1.54.65,1.54,1.53,1.54,1.53-.65,1.53-1.54ZM59.71,18.59h.53c.44,0,.74.14.74.52,0,.35-.27.52-.75.52h-.52v-1.05ZM59.71,19.9h.5l.81,1.37h.36l-.86-1.39c.43-.05.75-.32.75-.75,0-.57-.42-.78-1-.78h-.86v2.93h.3v-1.37ZM57.31,18.59h.5c.45,0,.72.17.72.52s-.25.53-.72.53h-.5v-1.06ZM57.01,21.26h.3v-1.36h.52c.6,0,1-.26,1-.79s-.39-.78-.99-.78h-.83v2.93ZM55.04,19.8c0,.68-.46,1.27-1.21,1.27s-1.21-.59-1.21-1.27.46-1.28,1.21-1.28,1.21.6,1.21,1.28ZM55.36,19.8c0-.89-.65-1.54-1.53-1.54s-1.53.65-1.53,1.54.65,1.54,1.53,1.54,1.53-.65,1.53-1.54ZM50.14,20.74c.07.35.36.6.79.6.64,0,.78-.54.78-.92v-2.08h-.3v2.06c0,.35-.11.68-.52.68-.26,0-.43-.18-.48-.41l-.28.07ZM48.28,19.87h1.42v-.26h-1.42v-1.01h1.52v-.26h-1.81v2.93h1.86v-.26h-1.57v-1.13ZM47.31,18.62c-.14-.19-.43-.36-.83-.36-.43,0-.93.24-.93.81,0,.53.4.7.79.82.37.12.71.22.71.63,0,.38-.35.57-.65.57s-.54-.16-.67-.37l-.26.19c.21.29.57.43.92.43.46,0,.95-.26.95-.84s-.45-.72-.87-.86c-.33-.11-.64-.2-.64-.57s.33-.55.62-.55.48.12.6.29l.24-.19ZM42.87,18.34h-.37v2.93h.3v-2.52h0l1.7,2.52h.37v-2.93h-.3v2.49h0l-1.7-2.49ZM41.56,19.8c0,.68-.46,1.27-1.21,1.27s-1.21-.59-1.21-1.27.46-1.28,1.21-1.28,1.21.6,1.21,1.28ZM41.87,19.8c0-.89-.65-1.54-1.53-1.54s-1.53.65-1.53,1.54.65,1.54,1.53,1.54,1.53-.65,1.53-1.54ZM38.29,20.64c-.2.3-.52.43-.86.43-.75,0-1.22-.6-1.22-1.28s.46-1.28,1.22-1.28c.37,0,.67.19.79.38l.25-.18c-.2-.29-.61-.46-1.04-.46-.87,0-1.53.65-1.53,1.54s.64,1.54,1.53,1.54c.52,0,.9-.25,1.1-.55l-.23-.15Z"/>
      <path class="cls-5" d="M87.83,27.32c0-.14-.1-.22-.21-.22s-.23.1-.23.23.1.21.22.21.22-.11.22-.23ZM107.53,24.93l.64,1.55h-1.29l.64-1.55ZM106.77,26.76h1.51l.32.77h.33l-1.26-2.93h-.29l-1.26,2.93h.33l.32-.77ZM104.63,24.86h.5c.45,0,.71.17.71.52s-.25.53-.71.53h-.5v-1.06ZM104.33,27.53h.3v-1.36h.52c.6,0,1-.26,1-.79s-.39-.78-.99-.78h-.83v2.93ZM101.12,24.6h-.45v2.93h.3v-2.54h0l1.06,2.54h.16l1.06-2.54h0v2.54h.3v-2.93h-.45l-.98,2.42h0l-.99-2.42ZM98.83,24.93l.64,1.55h-1.29l.64-1.55ZM98.07,26.76h1.51l.32.77h.33l-1.26-2.93h-.29l-1.26,2.93h.33l.32-.77ZM95.92,24.86h.5c.45,0,.71.17.71.52s-.25.53-.71.53h-.5v-1.06ZM95.62,27.53h.3v-1.36h.52c.6,0,1-.26,1-.79s-.39-.78-.99-.78h-.83v2.93ZM92.83,24.93l.64,1.55h-1.29l.64-1.55ZM92.07,26.76h1.51l.32.77h.33l-1.26-2.93h-.29l-1.26,2.93h.33l.32-.77ZM89.96,24.6h-.3v2.93h1.66v-.26h-1.36v-2.66ZM86.04,24.84c-.22-.21-.56-.31-.85-.31-.53,0-1.07.26-1.07.86,0,.55.38.72.74.83.37.12.67.2.67.51s-.29.43-.53.43-.5-.12-.64-.32l-.37.35c.23.27.62.42,1,.42.57,0,1.07-.31,1.07-.93,0-.57-.48-.74-.86-.86-.33-.1-.56-.18-.56-.45,0-.29.28-.4.52-.4.21,0,.43.11.54.25l.34-.37ZM81.12,26.06c0-.6.4-1.07,1-1.07s1.01.47,1.01,1.07-.41,1.08-1.01,1.08-1-.45-1-1.08ZM80.56,26.06c0,.91.67,1.55,1.57,1.55s1.58-.63,1.58-1.55-.67-1.53-1.58-1.53-1.57.59-1.57,1.53ZM80.38,24.97c-.23-.31-.68-.45-1.06-.45-.9,0-1.59.59-1.59,1.53s.65,1.55,1.56,1.55c.5,0,.88-.19,1.13-.51l-.42-.29c-.15.2-.4.34-.71.34-.6,0-.99-.44-.99-1.08,0-.6.41-1.07,1.01-1.07.24,0,.51.09.67.3l.4-.31ZM76.71,27.53h.52v-2.93h-.52v2.93ZM73.48,27.53h.52v-2.26h0l1.39,2.26h.66v-2.93h-.52v2.19h0l-1.36-2.19h-.69v2.93ZM73.11,24.97c-.23-.31-.68-.45-1.06-.45-.9,0-1.59.59-1.59,1.53s.65,1.55,1.56,1.55c.5,0,.88-.19,1.13-.51l-.42-.29c-.15.2-.4.34-.71.34-.6,0-.99-.44-.99-1.08,0-.6.41-1.07,1.01-1.07.24,0,.51.09.67.3l.4-.31ZM68.81,24.37h.39l.58-.6h-.56l-.41.6ZM68.08,27.53h2.01v-.46h-1.49v-.83h1.34v-.44h-1.34v-.74h1.42v-.45h-1.94v2.93ZM66.33,27.53h.52v-2.47h.9v-.45h-2.31v.45h.9v2.47ZM63.04,27.53h.52v-1.27l1.1-1.66h-.6l-.74,1.23-.74-1.23h-.64l1.1,1.66v1.27ZM60.85,24.84c-.22-.21-.56-.31-.85-.31-.53,0-1.07.26-1.07.86,0,.55.38.72.74.83.37.12.67.2.67.51s-.29.43-.53.43-.5-.12-.64-.32l-.37.35c.23.27.62.42,1,.42.57,0,1.07-.31,1.07-.93,0-.57-.48-.74-.86-.86-.33-.1-.56-.18-.56-.45,0-.29.28-.4.52-.4.21,0,.43.11.54.25l.34-.37ZM55.94,26.06c0-.6.4-1.07,1-1.07s1.01.47,1.01,1.07-.41,1.08-1.01,1.08-1-.45-1-1.08ZM55.37,26.06c0,.91.67,1.55,1.57,1.55s1.58-.63,1.58-1.55-.67-1.53-1.58-1.53-1.57.59-1.57,1.53ZM53.43,25.86v-.82h.47c.27,0,.58.08.58.4,0,.36-.33.43-.63.43h-.43ZM52.91,27.53h.52v-1.24h.38l.68,1.24h.63l-.78-1.3c.41-.09.67-.37.67-.79,0-.62-.53-.84-1.08-.84h-1.02v2.93ZM50.39,27.53h2.01v-.46h-1.49v-.83h1.34v-.44h-1.34v-.74h1.42v-.45h-1.94v2.93ZM49.23,27.53h.52v-2.93h-.52v2.93ZM46,27.53h.52v-2.26h0l1.39,2.26h.66v-2.93h-.52v2.19h0l-1.36-2.19h-.69v2.93ZM43.48,27.53h2.01v-.46h-1.49v-.83h1.34v-.44h-1.34v-.74h1.42v-.45h-1.94v2.93ZM42.85,25.86h-1.12v.43h.62v.74c-.17.07-.36.1-.58.1-.64,0-1.04-.45-1.04-1.08s.4-1.07,1.02-1.07c.31,0,.6.13.75.3l.36-.39c-.24-.22-.65-.37-1.11-.37-.9,0-1.59.59-1.59,1.53s.66,1.55,1.6,1.55c.46,0,.81-.09,1.1-.23v-1.52ZM37.06,27.53h.52v-2.26h0l1.39,2.26h.66v-2.93h-.52v2.19h0l-1.36-2.19h-.69v2.93ZM35.9,27.53h.52v-2.93h-.52v2.93Z"/>
      <path class="cls-5" d="M84.63,2.73h2.13c1.91,0,3.02.7,3.02,2.22s-1.07,2.25-3.02,2.25h-2.13V2.73ZM83.37,14.02h1.26v-5.75h2.2c2.52,0,4.21-1.1,4.21-3.32s-1.66-3.3-4.18-3.3h-3.5v12.38ZM75.72,1.64h-1.26v12.38h7.03v-1.12h-5.77V1.64ZM66.75,14.02h2.2V3.57h3.79v-1.92h-9.79v1.92h3.79v10.45ZM59.32,14.02h2.2V1.64h-2.2v12.38ZM50.86,7.04v-3.55h1.61c1.36,0,2.67.26,2.67,1.73s-1.31,1.82-2.74,1.82h-1.54ZM48.66,14.02h2.2v-5.12h1.7c2.62,0,4.81-.94,4.81-3.67s-1.84-3.58-4.67-3.58h-4.04v12.38ZM47.1,3.22c-.98-1.29-2.88-1.89-4.49-1.89-3.81,0-6.71,2.5-6.71,6.47s2.74,6.54,6.61,6.54c2.1,0,3.71-.8,4.79-2.17l-1.77-1.24c-.63.86-1.68,1.43-3.01,1.43-2.55,0-4.2-1.87-4.2-4.56,0-2.55,1.73-4.53,4.28-4.53,1,0,2.17.38,2.81,1.28l1.68-1.33Z"/>
      <g class="cls-12">
        <rect class="cls-11" x="13.84" y="22.69" width="100%" height="100%"/>
      </g>
      <g class="cls-1">
        <rect class="cls-7" y="8.29" width="31.2" height="13.5"/>
      </g>
      <g class="cls-4">
        <rect class="cls-8" x="1.11" y="15.22" width="28.56" height="11.13"/>
      </g>
      <g class="cls-2">
        <rect class="cls-9" x="24.69" width="6.93" height="8.45"/>
      </g>
      <g class="cls-3">
        <rect class="cls-10" x="12.78" width="15.03" height="10.91"/>
      </g>
    </g>
  </g>
</svg>