<?xml version="1.0" encoding="UTF-8"?>
<svg id="Capa_2" data-name="Capa 2" xmlns="http://www.w3.org/2000/svg" viewBox="0 0 86.01 31.09">
  <defs>
    <style>
      .cls-1 {
        fill: #fff;
      }

      .cls-1, .cls-2, .cls-3 {
        fill-rule: evenodd;
      }

      .cls-3, .cls-4 {
        fill: #f29100;
      }
    </style>
  </defs>
  <g id="Capa_1-2" data-name="Capa 1">
    <g>
      <g>
        <g>
          <path class="cls-1" d="M15.7,21.41h0c0,.08,0,.16,0,.24,0,.03,0,.07.01.1.04.1.07.21.21.23.16.03.3-.02.39-.16.13-.2.22-.41.22-.66,0-.07.04-.14.08-.2.14-.16.51-.21.66.05.07.13.1.28.16.41.03.06.08.13.14.15.19.07.52-.15.56-.35.02-.12.04-.22,0-.34-.02-.09.03-.19.05-.29.06-.32.35-.45.62-.27.09.06.16.15.24.22.29.29.23.29.61.08.15-.08.17-.18.11-.34-.05-.11-.1-.21-.15-.32-.11-.2-.11-.43.02-.55.17-.17.34-.17.58-.05.18.09.37.19.59.16.22-.03.38-.31.27-.48-.08-.12-.2-.22-.3-.33-.07-.09-.18-.19-.18-.29-.02-.3.2-.49.57-.43.18.03.36.04.54.04.15,0,.23-.09.27-.23.01-.04.02-.08.04-.12.04-.11.02-.2-.09-.27-.16-.1-.34-.2-.46-.34-.23-.25-.21-.51.15-.6.13-.03.27-.06.41-.08.28-.05.46-.16.46-.46,0-.12-.05-.19-.19-.2-.22-.01-.44-.03-.66-.05-.18-.01-.29-.12-.27-.28.02-.16.09-.3.22-.39.18-.12.36-.23.55-.33.17-.09.25-.3.17-.48-.07-.16-.21-.09-.32-.06-.23.06-.46.12-.69.19-.1.03-.19.03-.26-.06-.09-.12-.12-.35-.04-.47.08-.12.19-.22.29-.33.09-.09.19-.17.26-.26.11-.14.09-.23-.06-.38-.14-.14-.22-.15-.37-.06-.15.1-.3.21-.46.3-.12.06-.26.13-.38.11-.2-.03-.29-.25-.21-.48.06-.18.16-.34.24-.51.05-.12.1-.23.13-.36.02-.1-.03-.18-.13-.23-.09-.05-.16-.04-.24.03-.06.05-.13.1-.19.16-.17.17-.34.35-.52.51-.16.14-.35.15-.51.04-.15-.1-.16-.2-.11-.44.05-.25.15-.5.08-.77-.03-.12-.09-.21-.2-.24-.13-.04-.25.01-.32.13-.11.2-.22.4-.31.6-.09.18-.15.37-.33.48-.14.09-.3.13-.45.06-.13-.07-.15-.21-.15-.35,0-.1,0-.2,0-.31-.02-.18-.05-.36-.18-.5-.12-.13-.25-.15-.41-.08-.15.07-.19.21-.2.35-.02.23-.03.47-.04.71-.02.37-.33.58-.65.42-.11-.05-.18-.19-.27-.3-.1-.12-.18-.26-.29-.38-.13-.14-.36-.18-.48-.11-.14.09-.22.3-.16.49.07.2.17.39.24.58.06.17.04.34-.09.47-.12.12-.27.14-.42.06-.12-.07-.24-.15-.34-.24-.15-.14-.31-.26-.51-.31-.14-.04-.29-.07-.43.03-.16.12-.17.36-.05.56.12.19.27.36.42.54.11.13.18.27.1.43-.07.15-.18.27-.4.24-.17-.02-.33-.08-.49-.12-.17-.04-.35-.1-.52-.11-.24,0-.43.23-.36.43.06.17.18.28.35.33.21.06.39.15.53.33.16.21.08.49-.16.58-.19.07-.38.06-.58.02-.17-.03-.36-.04-.53-.03-.17.01-.26.12-.29.27-.04.2,0,.34.16.43.11.07.23.13.36.17.15.06.31.09.46.14.25.09.31.36.12.55-.05.04-.1.09-.16.11-.19.07-.39.14-.58.2-.19.06-.34.15-.38.37-.04.2.07.36.27.35.17-.01.34-.06.51-.08.15-.02.31-.04.45-.02.27.05.38.4.17.59-.16.15-.38.24-.57.37-.1.07-.2.14-.27.24-.1.14,0,.34.18.34.16,0,.32-.03.47-.09.17-.07.32-.19.49-.26.28-.11.47-.06.58.19.07.16.01.32-.09.46-.14.18-.3.35-.44.53-.12.15-.09.27.08.31.1.02.22.02.31-.03.18-.1.33-.24.5-.36.13-.09.25-.19.39-.25.15-.06.3,0,.41.13.1.11.07.23.02.35-.03.08-.08.15-.12.23-.05.1-.12.2-.16.3-.02.06,0,.16.04.21.15.17.58.13.71-.07.06-.09.1-.19.15-.28.1-.15.16-.33.36-.41.29-.12.5,0,.5.32v.15ZM20.3,11.42c-.05-.05-.1-.1-.16-.14-.38-.31-.76-.61-1.13-.92-.21-.17-.34-.18-.56-.01q-.17.13-.34-.02s-.03-.02-.04-.03c-.18-.16-.35-.33-.53-.49-.21-.19-.53-.2-.71.02-.15.17-.26.37-.37.57-.08.13-.09.13-.2.03-.21-.2-.42-.4-.64-.59-.16-.13-.34-.13-.52-.04-.16.08-.24.22-.24.4,0,.19,0,.37,0,.56-.01.21-.21.35-.4.28-.1-.04-.2-.11-.28-.18-.14-.14-.26-.3-.4-.44-.12-.12-.27-.14-.44-.08-.29.12-.32.4-.24.64.05.17.15.32.21.49.05.13.04.27-.06.38-.08.08-.19.14-.3.1-.13-.05-.26-.12-.36-.22-.15-.16-.32-.26-.53-.31-.28-.06-.52.11-.53.4-.01.26.12.44.29.59.16.14.2.23.15.38-.08.21-.18.29-.4.27-.09,0-.17-.04-.25-.06-.19-.07-.38-.14-.59-.11-.24.03-.48.31-.42.52.04.13.13.25.21.37.13.18.27.35.39.53.08.11.03.19-.11.2-.21.02-.42.04-.63.06-.36.03-.56.43-.38.72.14.23.3.45.44.68.05.08.12.16-.04.21-.08.02-.15.07-.21.13-.25.2-.45.37-.24.74.13.22.27.43.43.63.09.12.11.2.04.35-.06.14-.08.31.03.46.21.29.41.58.62.87.08.11.16.21.25.32.18-.26.22-.28.51-.41.14-.07.28-.15.4-.25.07-.06.13-.18.12-.26,0-.08-.11-.18-.18-.2-.1-.03-.23,0-.34.01-.2.03-.39.1-.58.1-.26.01-.39-.15-.41-.41-.01-.26.17-.45.41-.54.22-.08.44-.15.66-.24.1-.04.18-.11.17-.24,0-.12-.1-.16-.19-.19-.23-.09-.47-.16-.7-.25-.22-.09-.37-.32-.35-.52.02-.24.16-.43.38-.47.16-.03.33,0,.5,0,.15.01.29.06.44.06.14,0,.28-.04.34-.19.05-.12-.01-.26-.15-.37-.06-.05-.13-.08-.2-.11-.13-.06-.27-.11-.39-.19-.18-.12-.27-.38-.2-.52.1-.19.24-.35.47-.34.16,0,.32.03.47.07.15.04.3.11.45.16.14.05.28,0,.35-.11.09-.14.09-.19-.04-.34-.03-.04-.06-.07-.09-.1-.19-.22-.37-.44-.43-.74-.06-.33.18-.59.5-.55.29.03.55.16.76.37.09.09.2.17.32.23.1.05.21.04.29-.05.08-.09.12-.19.06-.31-.04-.08-.08-.16-.12-.25-.09-.18-.17-.37-.15-.58.03-.3.25-.52.58-.44.31.08.47.32.62.57.03.06.06.14.11.17.08.05.19.11.28.1.12,0,.24-.07.26-.23.01-.14.03-.27.05-.41.02-.17.03-.35.05-.52.03-.22.2-.37.37-.39.25-.03.41.07.53.3.13.25.11.52.13.79.02.19.11.26.3.19.25-.09.32-.31.4-.52.09-.25.19-.49.4-.67.19-.17.55-.1.64.19.08.26,0,.51-.04.77-.02.1-.07.2-.05.29,0,.06.09.14.15.17.11.04.23,0,.31-.08.15-.15.3-.31.44-.47.15-.17.31-.31.57-.29ZM20.56,11.63q.02.3-.12.58c-.08.15-.18.3-.23.46-.03.1-.03.24.02.32.06.1.18.04.27-.02.16-.09.31-.19.46-.3.21-.14.39-.21.61.04.02.02.05.04.07.06.01-.01.02-.03.04-.04-.31-.42-.74-.72-1.12-1.11ZM12.26,20.88c.07-.09.12-.17.18-.25.14-.18.29-.35.43-.53.08-.1.07-.22,0-.32-.07-.11-.18-.12-.3-.07-.04.02-.08.03-.11.05-.21.1-.43.2-.64.31-.02.01-.03.09-.02.11.07.13.16.26.24.38.07.11.15.21.22.31ZM22.26,13.92c-.22-.18-.43-.34-.64-.51-.02-.01-.07-.02-.09,0-.15.14-.31.28-.43.44-.05.06-.02.19,0,.28,0,.02.14.03.21.01.3-.07.59-.15.94-.23ZM14.11,20.82c0-.18-.19-.28-.33-.2-.14.08-.27.2-.4.31-.02.02-.02.09,0,.12.1.15.21.29.32.43.01.02.04.03.07.03.01,0,.02-.03.03-.05.05-.11.1-.23.16-.34.06-.11.12-.22.15-.29ZM17.33,21.61c-.04-.17-.06-.3-.11-.41-.13-.25-.25-.3-.46-.17-.15.09-.14.36.02.42.17.07.34.1.55.15ZM22.28,15.59s.01-.03.02-.04c-.16-.15-.32-.3-.48-.45-.02-.02-.08-.02-.12,0-.05.03-.1.07-.14.11-.1.11-.1.31,0,.32.24.03.47.04.71.06ZM15.57,21.84c-.01-.26-.02-.47-.04-.69,0-.03-.06-.09-.09-.09-.07,0-.15,0-.22.02-.14.05-.18.18-.08.29.13.16.28.3.44.46Z"/>
          <path class="cls-2" d="M15.7,21.41v-.15c0-.31-.21-.44-.5-.32-.2.08-.26.25-.36.41-.06.09-.1.19-.15.28-.12.19-.55.24-.71.07-.04-.05-.06-.15-.04-.21.03-.11.1-.2.16-.3.04-.08.09-.15.12-.23.05-.12.08-.24-.02-.35-.11-.12-.26-.19-.41-.13-.14.05-.26.16-.39.25-.17.12-.32.26-.5.36-.08.05-.21.05-.31.03-.17-.04-.2-.16-.08-.31.14-.18.3-.35.44-.53.1-.13.16-.29.09-.46-.11-.25-.3-.31-.58-.19-.17.07-.32.19-.49.26-.15.06-.31.09-.47.09-.17,0-.27-.19-.18-.34.07-.1.17-.17.27-.24.19-.13.41-.22.57-.37.21-.19.11-.54-.17-.59-.14-.03-.3,0-.45.02-.17.02-.34.07-.51.08-.2.01-.31-.15-.27-.35.04-.22.19-.31.38-.37.2-.06.39-.13.58-.2.06-.02.11-.07.16-.11.19-.19.14-.45-.12-.55-.15-.06-.31-.09-.46-.14-.12-.05-.24-.11-.36-.17-.15-.09-.2-.23-.16-.43.03-.15.11-.26.29-.27.18-.01.36,0,.53.03.2.04.39.06.58-.02.24-.09.32-.38.16-.58-.13-.18-.32-.27-.53-.33-.18-.05-.3-.16-.35-.33-.07-.2.12-.43.36-.43.17,0,.35.07.52.11.16.04.33.1.49.12.23.03.33-.09.4-.24.07-.16,0-.3-.1-.43-.15-.17-.3-.35-.42-.54-.12-.2-.12-.44.05-.56.14-.1.29-.07.43-.03.2.05.36.17.51.31.1.09.22.17.34.24.15.08.3.06.42-.06.14-.13.15-.3.09-.47-.07-.2-.17-.39-.24-.58-.06-.19.01-.4.16-.49.12-.07.35-.03.48.11.11.12.19.26.29.38.08.11.16.25.27.3.32.15.63-.05.65-.42.01-.24.02-.47.04-.71.01-.14.05-.28.2-.35.16-.07.29-.05.41.08.13.14.16.32.18.5,0,.1,0,.2,0,.31,0,.14.02.28.15.35.15.08.31.03.45-.06.18-.11.25-.3.33-.48.1-.2.2-.4.31-.6.07-.12.19-.17.32-.13.11.03.17.12.2.24.07.27-.03.52-.08.77-.05.24-.04.34.11.44.16.11.35.1.51-.04.18-.16.34-.34.52-.51.06-.06.13-.11.19-.16.07-.06.14-.08.24-.03.1.05.15.13.13.23-.03.12-.08.24-.13.36-.08.17-.17.33-.24.51-.08.23.01.45.21.48.12.02.26-.05.38-.11.16-.08.31-.2.46-.3.15-.1.23-.09.37.06.15.16.17.24.06.38-.08.1-.18.17-.26.26-.1.11-.21.21-.29.33-.09.12-.05.35.04.47.07.09.16.09.26.06.23-.06.46-.13.69-.19.11-.03.25-.1.32.06.08.18,0,.38-.17.48-.19.11-.37.22-.55.33-.14.09-.21.23-.22.39-.02.16.09.27.27.28.22.02.44.04.66.05.14,0,.19.08.19.2,0,.3-.18.41-.46.46-.14.02-.27.05-.41.08-.36.09-.38.35-.15.6.13.14.3.23.46.34.11.07.13.16.09.27-.01.04-.02.08-.04.12-.04.13-.12.23-.27.23-.18,0-.36-.01-.54-.04-.37-.06-.59.12-.57.43,0,.1.11.2.18.29.09.12.22.21.3.33.11.17-.06.45-.27.48-.22.03-.41-.07-.59-.16-.24-.12-.41-.11-.58.05-.13.13-.13.35-.02.55.06.1.11.21.15.32.07.16.04.26-.11.34-.38.21-.32.21-.61-.08-.08-.08-.15-.16-.24-.22-.27-.18-.56-.05-.62.27-.02.1-.07.2-.05.29.03.12.02.23,0,.34-.04.19-.37.42-.56.35-.06-.02-.11-.09-.14-.15-.06-.13-.09-.28-.16-.41-.15-.26-.52-.21-.66-.05-.04.05-.08.13-.08.2,0,.24-.09.46-.22.66-.09.14-.22.18-.39.16-.14-.02-.16-.13-.21-.23-.01-.03-.01-.06-.01-.1,0-.08,0-.16,0-.24h0ZM13.58,17.38s-.07-.04-.14-.08c.06.17.11.32.15.46.28.87,1.22,1.43,2.09,1.44.56,0,1.09-.1,1.59-.34.65-.31,1.2-.73,1.62-1.32.34-.47.57-.98.66-1.56.1-.63,0-1.23-.34-1.77-.31-.47-.75-.77-1.29-.92-.11-.03-.22-.05-.34-.06-.06,0-.06,0-.06.07-.14-.02-.29-.06-.43-.07-.43-.03-.84.06-1.23.22-.67.27-1.21.7-1.66,1.26-.38.48-.62,1.01-.73,1.62-.06.37-.01.7.1,1.04ZM14,14.89s-.02-.01-.02-.02c-.03.03-.06.07-.08.1-.11.18-.22.35-.32.53-.25.48-.38.99-.41,1.53-.02.4.05.79.18,1.17.17.48.46.87.85,1.19.47.38,1.01.55,1.6.61.44.05.87-.02,1.3-.14.87-.25,1.6-.72,2.19-1.41.29-.35.52-.73.69-1.15.16-.39.25-.8.25-1.22,0-.21-.03-.41-.05-.62-.02-.32-.14-.62-.29-.9-.37-.68-.95-1.1-1.68-1.33-.09-.03-.19-.03-.25-.04.25.12.52.26.79.4.67.36,1.08.92,1.28,1.65.17.63.1,1.26-.11,1.87-.14.4-.34.77-.6,1.11-.48.61-1.07,1.07-1.79,1.37-.48.2-.97.28-1.48.31-.14,0-.28-.02-.41-.04-.16-.03-.33-.04-.49-.1-.44-.15-.83-.38-1.15-.73-.39-.43-.62-.94-.68-1.52-.03-.32-.02-.64.04-.97.07-.38.18-.75.35-1.1.09-.19.2-.38.3-.57Z"/>
          <path class="cls-2" d="M20.3,11.42c-.26-.02-.42.12-.57.29-.14.16-.29.32-.44.47-.09.09-.2.13-.31.08-.07-.02-.15-.1-.15-.17-.01-.09.03-.19.05-.29.05-.25.12-.5.04-.77-.09-.29-.44-.36-.64-.19-.21.18-.31.42-.4.67-.08.21-.16.43-.4.52-.18.07-.28,0-.3-.19-.02-.26,0-.54-.13-.79-.12-.23-.28-.33-.53-.3-.17.02-.34.17-.37.39-.02.17-.03.35-.05.52-.01.14-.03.27-.05.41-.02.15-.13.22-.26.23-.09,0-.2-.05-.28-.1-.05-.03-.08-.11-.11-.17-.15-.25-.3-.49-.62-.57-.33-.08-.55.14-.58.44-.02.21.06.4.15.58.04.08.08.17.12.25.07.12.02.23-.06.31-.08.09-.19.1-.29.05-.12-.06-.23-.14-.32-.23-.21-.22-.47-.34-.76-.37-.31-.03-.56.23-.5.55.06.3.23.52.43.74.03.03.06.07.09.1.13.16.14.21.04.34-.08.11-.21.16-.35.11-.15-.05-.3-.12-.45-.16-.15-.04-.32-.07-.47-.07-.24,0-.38.15-.47.34-.07.14.02.4.2.52.12.08.26.13.39.19.07.03.14.07.2.11.14.11.2.25.15.37-.06.15-.2.19-.34.19-.15,0-.29-.05-.44-.06-.17-.01-.34-.03-.5,0-.23.04-.36.23-.38.47-.02.2.13.43.35.52.23.09.46.17.7.25.09.03.19.07.19.19,0,.12-.07.2-.17.24-.22.08-.44.16-.66.24-.24.09-.42.28-.41.54.01.25.15.42.41.41.2,0,.39-.07.58-.1.11-.02.24-.04.34-.01.08.02.17.12.18.2,0,.08-.05.2-.12.26-.12.1-.26.18-.4.25-.29.14-.33.16-.51.41-.09-.11-.17-.21-.25-.32-.21-.29-.41-.58-.62-.87-.11-.15-.09-.32-.03-.46.06-.14.05-.23-.04-.35-.16-.2-.3-.41-.43-.63-.22-.37,0-.54.24-.74.06-.05.14-.1.21-.13.16-.05.1-.13.04-.21-.15-.22-.3-.45-.44-.68-.18-.29.03-.69.38-.72.21-.02.42-.04.63-.06.14-.01.18-.09.11-.2-.12-.18-.27-.35-.39-.53-.08-.12-.17-.23-.21-.37-.06-.22.18-.49.42-.52.21-.03.4.05.59.11.08.03.17.06.25.06.21.02.32-.06.4-.27.06-.15.01-.24-.15-.38-.18-.15-.31-.33-.29-.59.02-.28.25-.46.53-.4.21.05.38.15.53.31.1.1.23.17.36.22.11.04.22-.01.3-.1.11-.11.11-.25.06-.38-.06-.17-.16-.32-.21-.49-.07-.24-.05-.52.24-.64.17-.07.32-.04.44.08.14.14.26.3.4.44.08.08.18.15.28.18.19.07.39-.08.4-.28,0-.19,0-.37,0-.56,0-.18.08-.32.24-.4.18-.09.36-.09.52.04.22.19.43.38.64.59.11.11.12.1.2-.03.11-.2.23-.4.37-.57.18-.22.51-.21.71-.02.18.16.35.33.53.49.01.01.03.02.04.03q.17.15.34.02c.22-.17.35-.16.56.01.37.31.75.61,1.13.92.05.04.1.1.16.14Z"/>
          <path class="cls-2" d="M20.56,11.63c.38.39.81.69,1.12,1.11-.01.01-.02.03-.04.04-.02-.02-.05-.04-.07-.06-.22-.25-.4-.18-.61-.04-.15.1-.31.2-.46.3-.09.05-.21.12-.27.02-.05-.08-.05-.22-.02-.32.05-.16.15-.31.23-.46q.14-.28.12-.58Z"/>
          <path class="cls-2" d="M12.26,20.88c-.07-.1-.15-.2-.22-.31-.08-.12-.17-.25-.24-.38-.01-.03,0-.1.02-.11.21-.11.43-.21.64-.31.04-.02.08-.03.11-.05.12-.05.22-.04.3.07.07.1.08.22,0,.32-.14.18-.29.35-.43.53-.06.07-.11.15-.18.25Z"/>
          <path class="cls-2" d="M22.26,13.92c-.35.09-.64.17-.94.23-.07.01-.2,0-.21-.01-.02-.09-.05-.22,0-.28.12-.16.28-.3.43-.44.02-.01.07-.01.09,0,.21.16.41.33.64.51Z"/>
          <path class="cls-2" d="M14.11,20.82c-.04.07-.1.18-.15.29-.06.11-.11.23-.16.34,0,.02-.02.05-.03.05-.02,0-.05,0-.07-.03-.11-.14-.22-.28-.32-.43-.02-.03-.02-.11,0-.12.13-.11.25-.22.4-.31.14-.08.33.02.33.2Z"/>
          <path class="cls-2" d="M17.33,21.61c-.21-.06-.39-.09-.55-.15-.16-.06-.17-.33-.02-.42.21-.13.34-.08.46.17.05.11.07.24.11.41Z"/>
          <path class="cls-2" d="M22.28,15.59c-.24-.02-.47-.03-.71-.06-.11-.01-.11-.22,0-.32.04-.04.09-.08.14-.11.03-.02.09-.02.12,0,.16.14.32.3.48.45,0,.01-.01.03-.02.04Z"/>
          <path class="cls-2" d="M15.57,21.84c-.16-.17-.31-.31-.44-.46-.1-.11-.06-.24.08-.29.07-.02.15-.03.22-.02.04,0,.09.06.09.09.02.21.03.43.04.69Z"/>
          <path class="cls-1" d="M13.58,17.38c-.11-.34-.16-.68-.1-1.04.1-.61.35-1.14.73-1.62.45-.56.99-.99,1.66-1.26.39-.16.8-.25,1.23-.22.15,0,.29.04.43.07.08.03.16.05.24.08.09.03.17.07.26.11.03.05.06.12.11.15.26.18.41.43.5.72.17.52.1,1.04-.08,1.54-.1.28-.25.54-.43.79-.38.53-.84.96-1.4,1.29-.45.26-.94.42-1.46.43-.44,0-.86-.09-1.21-.38-.23-.16-.39-.38-.47-.66Z"/>
          <path class="cls-1" d="M18.04,13.49c-.09-.04-.17-.07-.26-.11-.08-.03-.16-.06-.24-.08,0-.07,0-.08.06-.07.11.01.23.03.34.06.54.15.99.45,1.29.92.35.54.44,1.14.34,1.77-.09.58-.32,1.09-.66,1.56-.42.58-.97,1.01-1.62,1.32-.51.24-1.03.35-1.59.34-.87-.01-1.81-.58-2.09-1.44-.05-.15-.1-.29-.15-.46.06.04.1.06.14.08.08.27.24.49.47.66.02.03.03.07.05.09.31.34.71.51,1.15.58.54.09,1.08.01,1.59-.2.64-.26,1.18-.68,1.59-1.22.41-.53.65-1.13.66-1.81.01-.63-.16-1.19-.63-1.62-.14-.13-.28-.24-.42-.36Z"/>
          <path class="cls-1" d="M14,14.89c-.1.19-.21.37-.3.57-.16.35-.27.72-.35,1.1-.06.32-.08.64-.04.97.06.58.29,1.08.68,1.52.32.35.71.58,1.15.73.16.05.32.07.49.1.14.02.28.05.41.04.51-.02,1-.11,1.48-.31.72-.3,1.32-.75,1.79-1.37.26-.34.47-.71.6-1.11.21-.61.28-1.24.11-1.87-.2-.72-.61-1.29-1.28-1.65-.27-.14-.54-.27-.79-.4.06,0,.16,0,.25.04.73.23,1.31.65,1.68,1.33.15.28.27.57.29.9.01.21.05.41.05.62,0,.42-.09.83-.25,1.22-.17.42-.4.8-.69,1.15-.59.69-1.32,1.16-2.19,1.41-.42.12-.86.19-1.3.14-.59-.06-1.13-.23-1.6-.61-.39-.32-.68-.71-.85-1.19-.14-.38-.2-.77-.18-1.17.02-.54.16-1.05.41-1.53.09-.18.21-.35.32-.53.02-.04.06-.07.08-.1,0,0,.02.01.02.02Z"/>
          <path class="cls-2" d="M18.04,13.49c.14.12.29.24.42.36.47.44.65,1,.63,1.62-.01.68-.25,1.28-.66,1.81-.42.54-.96.96-1.59,1.22-.51.21-1.05.29-1.59.2-.44-.07-.84-.24-1.15-.58-.02-.03-.04-.06-.05-.09.35.29.77.39,1.21.38.52,0,1.01-.17,1.46-.43.57-.32,1.02-.76,1.4-1.29.18-.25.33-.51.43-.79.18-.5.25-1.02.08-1.54-.09-.29-.25-.54-.5-.72-.05-.03-.07-.1-.11-.15Z"/>
        </g>
        <path class="cls-3" d="M0,9.29c.2-.29.48-.5.74-.73.25-.21.49-.44.76-.64.17-.12.17-.27.13-.44-.07-.32-.13-.65-.23-.96,0-.01,0-.03,0-.05.18.1.25.29.36.44.09.12.18.25.26.39.05.09.1.09.18.03.43-.37.87-.73,1.38-.98.27-.13.54-.22.83-.31.4-.13.82-.19,1.23-.23.39-.04.8-.01,1.2-.01.44,0,.87.09,1.31.14.41.04.81.15,1.22.21.23.03.46.11.7.15.36.08.72.16,1.07.24.29.06.58.11.86.17.31.07.62.12.94.16.26.03.52.08.78.12.16.02.32.04.48.06.69.07,1.39.08,2.08.07.07,0,.12,0,.14-.11.02-.12.02-.24,0-.37-.02-.13,0-.27-.01-.4-.02-.33-.07-.65-.13-.97-.07-.41-.16-.82-.21-1.24-.04-.36-.13-.71-.1-1.07.03-.32.12-.6.39-.83.46-.4.92-.79,1.39-1.18.34-.28.67-.58,1.05-.81.26-.15.54-.12.81-.08.25.04.49.1.74.17.24.07.48.14.72.22.33.11.65.22.98.32.37.11.74.21,1.11.3.28.07.55.13.83.18.34.06.69.1,1.03.17.02,0,.04,0,.05,0,.51,0,1.02.11,1.52.04.22-.03.44,0,.66-.06.07-.02.11-.05.15-.11.1-.14.21-.28.33-.4.03-.04.07-.09.12-.06.03.02,0,.08,0,.13-.11.36-.31.68-.46,1.02-.14.32-.26.65-.37.98-.08.23-.16.47-.22.7-.08.29-.16.57-.22.87-.05.27-.12.54-.16.81-.03.21-.06.43-.1.64-.07.41-.11.82-.12,1.24-.03.72-.03,1.45.05,2.17.04.4.12.8.16,1.21.03.35.07.71.14,1.05.08.44.11.88.17,1.32.05.36.09.73.13,1.1.04.33.06.66.12.99.03.17.05.35.06.52.04.69.13,1.38.18,2.07.02.27.02.54.04.82.08.95.04,1.9.03,2.85,0,.31-.04.63-.08.95-.05.36-.11.71-.16,1.07-.04.22-.12.43-.17.65-.06.27-.19.52-.28.79-.04.11-.15.17-.17.3-.07.33-.26.62-.42.91-.32.58-.66,1.16-1.01,1.72-.19.3-.41.6-.63.88-.09.11-.19.21-.29.31-.05.05-.05.1,0,.16.37.52.73,1.06,1.07,1.6.1.16.21.32.33.47,0,0-.02.01-.03.02-.14-.15-.28-.31-.42-.45-.42-.42-.85-.84-1.3-1.23-.43-.37-.87-.73-1.32-1.08-.49-.37-.99-.73-1.56-.99-.51-.24-1.04-.43-1.59-.57-.48-.12-.95-.24-1.44-.32-.48-.08-.95-.16-1.43-.21-.33-.04-.67-.08-1-.14-.39-.06-.77-.12-1.15-.2-.45-.09-.9-.17-1.33-.33-.48-.18-.95-.37-1.32-.75-.29-.3-.51-.64-.75-.97-.2-.29-.37-.61-.65-.84-.46-.37-.95-.68-1.48-.94-.24-.12-.49-.25-.74-.36-.09-.04-.16-.18-.25-.26-.2-.19-.44-.29-.69-.37-.32-.1-.64-.17-.96-.26-.19-.06-.37-.17-.54-.28-.29-.18-.58-.36-.84-.59-.46-.39-.85-.85-1.21-1.34-.32-.45-.64-.91-.95-1.36-.3-.43-.57-.87-.83-1.32-.29-.5-.51-1.04-.58-1.63-.05-.45-.01-.89.1-1.33.1-.37.25-.73.36-1.1.07-.25.12-.51.16-.77.11-.6.14-1.21.12-1.82,0-.36-.05-.72-.08-1.08,0-.09-.06-.11-.12-.08-.16.07-.31.12-.45.24-.31.26-.6.54-.94.77-.08.05-.12.15-.23.16h0ZM26.81,2.13c-.09.01-.13.04-.17.07-.36.31-.72.61-1.07.92-.07.06-.13.13-.21.15-.21.05-.42.1-.63.11-.3.01-.6.05-.9.05-.38,0-.75-.03-1.12-.05-.34-.02-.68-.1-1.02-.15-.16-.03-.33-.05-.49-.09-.3-.08-.6-.14-.89-.23-.31-.09-.61-.18-.92-.28-.26-.08-.52-.16-.77-.25-.06-.02-.12-.01-.11.08,0,.05,0,.09.01.14.06.28.14.57.18.85.05.32.08.64.09.96.02.53.03,1.07-.14,1.59-.08.26-.15.52-.42.66-.07.04-.13.09-.19.14-.46.39-.93.79-1.39,1.18-.22.18-.43.39-.68.54-.34.2-.7.32-1.09.41-.28.06-.56.11-.84.13-.73.05-1.46.02-2.18-.04-.17-.01-.34-.02-.51-.05-.28-.06-.56-.08-.84-.13-.25-.04-.5-.09-.74-.13-.19-.04-.39-.08-.58-.11-.35-.06-.69-.14-1.03-.22-.24-.05-.47-.11-.7-.16-.27-.06-.53-.1-.8-.16-.33-.08-.66-.12-.99-.17-.21-.03-.43-.05-.65-.07-.7-.05-1.41-.05-2.11.02-.12.01-.25.03-.38.07-.1.04-.08.06-.03.13.15.2.29.41.42.62.18.28.21.62.29.93.08.3.11.61.17.92.1.51.07,1.03.13,1.54.02.16-.02.33-.03.49-.01.51-.06,1.02-.17,1.52-.07.36-.19.71-.31,1.05-.17.44-.26.89-.25,1.36,0,.3.04.61.11.9.01.05.04.07.07.1.43.37.89.69,1.39.93.55.27,1.11.52,1.68.75.4.16.78.36,1.17.55,1.06.51,1.81,1.32,2.47,2.26.18.25.31.53.59.71.44.26.91.41,1.39.55.25.07.51.12.77.18.19.04.39.07.58.11.16.03.32.05.49.08.25.04.49.09.74.11.17.01.35.05.52.08.38.06.76.1,1.13.17.3.06.6.1.89.17.41.09.83.19,1.23.32.32.1.64.22.95.36.52.23.99.55,1.46.88.57.41,1.13.83,1.66,1.29.46.4.9.81,1.3,1.26.15.17.29.33.44.49.04.05.09.11.14-.02.19-.45.43-.88.67-1.3.07-.13.18-.25.21-.41.02-.13.05-.25.07-.38.06-.3.1-.6.12-.9.03-.3.04-.59.06-.89.04-.61.04-1.22.02-1.83-.02-.52-.03-1.04-.07-1.57-.03-.38-.08-.75-.07-1.13,0-.02,0-.04,0-.06-.05-.39-.08-.79-.12-1.18-.02-.24-.05-.49-.08-.73-.02-.18-.03-.36-.06-.53-.05-.3-.08-.6-.11-.9-.02-.22-.06-.44-.08-.66,0-.12-.01-.24-.04-.36-.06-.29-.08-.59-.14-.88-.03-.18-.07-.37-.07-.56,0-.11-.03-.23-.04-.34-.06-.4-.11-.8-.14-1.21-.02-.33-.04-.66-.06-1-.02-.49,0-.98.03-1.47.03-.42.08-.83.14-1.25.03-.2.07-.41.1-.61.04-.21.09-.42.15-.63.06-.23.12-.45.18-.68.06-.23.13-.46.21-.69.08-.23.13-.47.22-.69.18-.43.34-.86.53-1.28.27-.59.55-1.17.88-1.73.12-.21.24-.43.38-.66Z"/>
      </g>
      <g>
        <g>
          <path class="cls-2" d="M63.68,14.1v5.88c0,.18,0,.18.19.18.95,0,1.91,0,2.86,0,.19,0,.19,0,.19-.19v-8.61c0-.18,0-.19.19-.19.59,0,1.19,0,1.78,0,.19,0,.38.03.57.08.72.19,1.14.66,1.27,1.39.11.59-.21,1.31-.77,1.65-.34.21-.7.3-1.09.3-.35,0-.7,0-1.05,0-.1,0-.14.03-.14.14,0,.31,0,.61,0,.92v1.94c0,.07-.01.15.1.14.83-.02,1.67.08,2.49-.17.27-.08.55-.17.81-.28.48-.2.92-.48,1.31-.83.62-.54,1.07-1.2,1.35-1.97.17-.48.27-.97.29-1.47.02-.5-.05-1-.19-1.48-.2-.65-.52-1.24-.96-1.76-.31-.37-.68-.66-1.09-.93-.45-.3-.95-.52-1.47-.66-.4-.11-.81-.16-1.24-.16-1.74,0-3.47,0-5.21,0-.2,0-.2,0-.2.19v5.86ZM85.26,8.05h-.15c-1.79,0-3.59,0-5.38,0-.2,0-.39.03-.59.05-.42.05-.81.18-1.2.33-.48.2-.92.46-1.31.8-.63.55-1.12,1.2-1.41,1.99-.14.38-.25.77-.28,1.17-.04.63-.02,1.26.18,1.87.15.45.34.88.6,1.27.4.6.92,1.1,1.55,1.48.64.39,1.33.64,2.07.7.6.04,1.21.02,1.82.03.11,0,.09-.07.09-.14,0-.95,0-1.91,0-2.86,0-.12-.04-.14-.15-.14-.39,0-.77,0-1.16,0-.59-.01-1.07-.23-1.43-.71-.42-.56-.45-1.25-.12-1.83.34-.58.87-.87,1.53-.88.62-.01,1.25,0,1.88,0,.2,0,.2,0,.2.19,0,2.06,0,4.12,0,6.18,0,.18,0,.18.18.18.98,0,1.96,0,2.94,0,.05,0,.1-.01.15-.02v-9.67ZM52.68,17.87c0-.06,0-.1,0-.15,0-1.7,0-3.41,0-5.11,0-.36-.06-.72-.14-1.07-.1-.41-.27-.8-.49-1.17-.28-.47-.62-.9-1.04-1.25-.41-.35-.87-.62-1.37-.83-.48-.21-.98-.33-1.5-.35-.45-.02-.9,0-1.34.05-.37.05-.74.15-1.08.29-.77.31-1.43.78-1.96,1.42-.38.46-.67.98-.87,1.54-.14.39-.23.78-.23,1.19-.01,1.18,0,2.37,0,3.55,0,.03,0,.05.01.09h.14c.98,0,1.95,0,2.93,0,.13,0,.17-.04.17-.17,0-1.06-.01-2.11,0-3.17,0-.21.05-.44.13-.63.3-.68.85-1.01,1.58-1.06.3-.02.6.07.88.21.62.31.95.82.96,1.5.01,1.65,0,3.3,0,4.95v.17h3.23ZM37.91,9.79v.19c0,1.03,0,2.06,0,3.09,0,.15-.02.3-.06.45-.15.59-.54,1-1.11,1.19-.44.15-.89.15-1.34-.04-.64-.26-1.06-.9-1.07-1.58,0-1.65,0-3.29,0-4.94v-.18h-3.23v.19c0,1.51,0,3.01,0,4.52,0,.42.03.83.07,1.25.02.22.07.44.15.65.15.4.32.78.56,1.14.33.5.74.93,1.23,1.28.63.45,1.33.75,2.1.88.71.12,1.4.1,2.1-.06.4-.09.79-.23,1.16-.42.64-.33,1.19-.77,1.64-1.33.39-.49.69-1.04.85-1.65.11-.4.18-.8.18-1.22,0-1.08,0-2.17,0-3.25v-.17h-3.23ZM62.29,16.23V5.55h-3.27v10.68h3.27ZM54.16,9.7v6.53h3.24v-6.53h-3.24Z"/>
          <path class="cls-2" d="M63.68,14.1v-5.86c0-.19,0-.19.2-.19,1.74,0,3.47,0,5.21,0,.42,0,.84.04,1.24.16.52.15,1.01.36,1.47.66.4.27.77.56,1.09.93.44.52.76,1.11.96,1.76.14.48.21.98.19,1.48-.02.5-.11,1-.29,1.47-.28.77-.73,1.43-1.35,1.97-.39.34-.83.62-1.31.83-.26.11-.54.19-.81.28-.81.25-1.65.14-2.49.17-.12,0-.1-.07-.1-.14v-1.94c0-.31,0-.61,0-.92,0-.11.04-.14.14-.14.35,0,.7,0,1.05,0,.39,0,.74-.09,1.09-.3.56-.34.88-1.07.77-1.65-.14-.73-.55-1.21-1.27-1.39-.18-.05-.38-.07-.57-.08-.59-.01-1.19,0-1.78,0-.18,0-.19,0-.19.19v8.61c0,.19,0,.19-.19.19-.95,0-1.91,0-2.86,0-.19,0-.19,0-.19-.18v-5.88Z"/>
          <path class="cls-2" d="M85.26,8.05v9.67c-.05,0-.1.02-.15.02-.98,0-1.96,0-2.94,0-.18,0-.18,0-.18-.18,0-2.06,0-4.12,0-6.18,0-.19,0-.19-.2-.19-.62,0-1.25-.01-1.88,0-.66.02-1.19.3-1.53.88-.33.58-.3,1.27.12,1.83.36.48.85.7,1.43.71.39,0,.77,0,1.16,0,.11,0,.15.02.15.14,0,.95,0,1.91,0,2.86,0,.06.02.14-.09.14-.61-.01-1.22.01-1.82-.03-.74-.05-1.43-.31-2.07-.7-.62-.38-1.14-.87-1.55-1.48-.26-.39-.45-.82-.6-1.27-.2-.61-.22-1.24-.18-1.87.02-.4.14-.79.28-1.17.29-.79.78-1.45,1.41-1.99.39-.34.83-.6,1.31-.8.39-.16.78-.29,1.2-.33.2-.02.39-.05.59-.05,1.79,0,3.59,0,5.38,0h.15Z"/>
          <path class="cls-2" d="M52.68,17.87h-3.23v-.17c0-1.65,0-3.3,0-4.95,0-.68-.33-1.19-.96-1.5-.28-.14-.58-.23-.88-.21-.72.04-1.28.38-1.58,1.06-.09.19-.13.42-.13.63-.01,1.06,0,2.11,0,3.17,0,.13-.03.17-.17.17-.98,0-1.95,0-2.93,0h-.14s-.01-.06-.01-.09c0-1.18,0-2.37,0-3.55,0-.41.1-.81.23-1.19.2-.57.49-1.08.87-1.54.53-.64,1.2-1.11,1.96-1.42.34-.14.71-.24,1.08-.29.44-.06.89-.07,1.34-.05.52.02,1.02.15,1.5.35.5.21.96.48,1.37.83.42.36.76.78,1.04,1.25.22.37.39.76.49,1.17.08.35.14.71.14,1.07.01,1.7,0,3.41,0,5.11,0,.04,0,.09,0,.15Z"/>
          <path class="cls-2" d="M37.91,9.79h3.23v.17c0,1.08,0,2.17,0,3.25,0,.42-.08.82-.18,1.22-.17.61-.46,1.16-.85,1.65-.44.56-1,1-1.64,1.33-.37.19-.75.33-1.16.42-.7.16-1.4.18-2.1.06-.77-.13-1.47-.43-2.1-.88-.49-.35-.89-.78-1.23-1.28-.24-.36-.41-.74-.56-1.14-.08-.21-.13-.43-.15-.65-.04-.41-.06-.83-.07-1.25,0-1.51,0-3.01,0-4.52v-.19h3.23v.18c0,1.65,0,3.29,0,4.94,0,.67.42,1.31,1.07,1.58.44.18.9.19,1.34.04.57-.2.95-.6,1.11-1.19.04-.14.06-.3.06-.45,0-1.03,0-2.06,0-3.09v-.19Z"/>
          <path class="cls-2" d="M62.29,16.23h-3.27V5.55h3.27v10.68Z"/>
          <path class="cls-2" d="M54.16,9.7h3.24v6.53h-3.24v-6.53Z"/>
        </g>
        <rect class="cls-4" x="54.24" y="19.75" width="31.77" height=".34"/>
        <rect class="cls-4" x="31.17" y="19.75" width="31.15" height=".34"/>
        <rect class="cls-4" x="63.96" y="5.39" width="21.3" height=".34"/>
        <g>
          <path d="M30.98,22.41h.28v1.56c0,.12,0,.21.02.27s.03.11.06.16c.05.09.12.17.22.22.1.05.21.08.33.08.21,0,.37-.06.47-.19.1-.13.15-.32.15-.59v-1.51h.27v1.57c0,.32-.07.56-.22.72-.15.16-.37.24-.66.24-.32,0-.55-.08-.7-.23-.15-.15-.22-.39-.22-.72v-1.57Z"/>
          <path d="M35.13,24.59l-.03-2.18h.27v2.47h-.33l-1.55-2.18.03,2.18h-.27v-2.47h.33l1.55,2.18Z"/>
          <path d="M36.18,24.89h-.28v-2.47h.28v2.47Z"/>
          <path d="M36.56,23.63c0-.17.04-.34.11-.49.08-.16.18-.3.33-.42.14-.12.29-.21.46-.27.17-.06.35-.09.54-.09s.38.03.55.09.32.15.46.27c.14.12.25.26.32.41.07.15.11.32.11.49s-.03.34-.09.48-.15.28-.28.4c-.14.14-.31.24-.49.31-.18.07-.38.11-.59.11-.41,0-.75-.12-1.02-.37s-.41-.56-.41-.93ZM36.85,23.64c0,.3.11.55.33.76.22.2.5.31.83.31s.59-.1.81-.31c.22-.21.33-.46.33-.76,0-.28-.11-.52-.34-.73-.23-.2-.5-.3-.82-.3-.13,0-.26.02-.38.06-.12.04-.23.1-.33.17-.13.1-.24.22-.32.37-.08.14-.12.29-.12.44Z"/>
          <path d="M41.7,24.59l-.03-2.18h.27v2.47h-.33l-1.55-2.18.03,2.18h-.27v-2.47h.33l1.55,2.18Z"/>
          <path d="M43.86,24.89h-.28v-2.47h.28v2.47Z"/>
          <path d="M46.26,24.59l-.03-2.18h.27v2.47h-.33l-1.55-2.18.03,2.18h-.27v-2.47h.33l1.55,2.18Z"/>
          <path d="M47.03,22.41h.8c.22,0,.41.02.56.06.15.04.28.1.4.19.16.12.29.26.38.44.09.17.13.36.13.55,0,.22-.05.42-.15.6-.1.18-.24.33-.42.44-.12.07-.25.13-.39.16-.14.03-.35.05-.64.05h-.68v-2.47ZM47.3,22.65v2h.58c.36,0,.64-.09.83-.26.19-.18.29-.43.29-.75,0-.16-.03-.31-.1-.45s-.16-.25-.28-.34c-.09-.07-.19-.12-.31-.15-.11-.03-.28-.05-.5-.05h-.51Z"/>
          <path d="M49.63,22.41h.28v1.56c0,.12,0,.21.02.27s.03.11.06.16c.05.09.12.17.22.22.1.05.21.08.33.08.21,0,.37-.06.47-.19.1-.13.15-.32.15-.59v-1.51h.27v1.57c0,.32-.07.56-.22.72s-.37.24-.66.24c-.32,0-.55-.08-.7-.23s-.22-.39-.22-.72v-1.57Z"/>
          <path d="M51.76,24.18h.27c0,.15.05.27.15.37.09.09.22.14.37.14.16,0,.29-.04.39-.14.1-.09.14-.21.14-.37,0-.22-.2-.39-.59-.51-.03,0-.05-.02-.07-.02-.21-.06-.36-.14-.45-.24s-.14-.22-.14-.37c0-.2.07-.36.21-.48.14-.13.32-.19.54-.19s.38.06.5.17c.12.11.19.28.21.48h-.26c-.01-.13-.06-.24-.14-.31-.08-.07-.18-.11-.31-.11-.14,0-.25.04-.34.12-.09.08-.13.18-.13.3,0,.06.01.12.04.17.03.05.07.09.13.13.06.04.17.08.34.13.1.03.17.05.22.07.18.06.32.14.4.24s.12.22.12.38c0,.24-.07.43-.22.58-.15.15-.35.22-.59.22-.23,0-.42-.07-.56-.21-.14-.14-.22-.32-.22-.55Z"/>
          <path d="M54.36,24.89h-.28v-2.23h-.56v-.24h1.4v.24h-.56v2.23Z"/>
          <path d="M55.44,22.65v2.23h-.27v-2.47h.76c.17,0,.3.01.4.03.1.02.19.06.28.11.11.07.2.16.27.28s.1.24.1.37c0,.19-.06.36-.19.49s-.29.21-.49.23l.68.97h-.33l-.84-1.19h.27c.18,0,.32-.05.43-.14.11-.09.17-.21.17-.35,0-.09-.02-.17-.05-.24-.03-.07-.08-.13-.15-.19-.06-.04-.12-.08-.2-.09s-.22-.03-.42-.03h-.41Z"/>
          <path d="M57.69,24.89h-.28v-2.47h.28v2.47Z"/>
          <path d="M58.15,24.89h-.29l1.09-2.47h.33l1.09,2.47h-.3l-.34-.78h-1.25l-.34.78ZM59.64,23.89l-.53-1.24-.53,1.24h1.06Z"/>
          <path d="M61.85,24.89h-1.27v-2.47h.28v2.23h.99v.24Z"/>
          <path d="M63.33,22.41h.8c.22,0,.41.02.56.06.15.04.28.1.4.19.16.12.29.26.38.44.09.17.13.36.13.55,0,.22-.05.42-.15.6-.1.18-.24.33-.42.44-.12.07-.25.13-.39.16-.14.03-.35.05-.64.05h-.68v-2.47ZM63.61,22.65v2h.58c.36,0,.64-.09.83-.26.19-.18.29-.43.29-.75,0-.16-.03-.31-.1-.45s-.16-.25-.28-.34c-.09-.07-.19-.12-.31-.15-.11-.03-.28-.05-.5-.05h-.51Z"/>
          <path d="M66.26,23.52h1.18v.24h-1.18v.88h1.18v.24h-1.46v-2.47h1.46v.24h-1.18v.87Z"/>
          <path d="M70.36,24.89h-1.27v-2.47h.28v2.23h.99v.24Z"/>
          <path d="M70.65,24.89h-.29l1.09-2.47h.33l1.09,2.47h-.3l-.34-.78h-1.25l-.34.78ZM72.15,23.89l-.53-1.24-.53,1.24h1.06Z"/>
          <path d="M74.18,22.41h.6c.17,0,.31,0,.41.02s.19.04.26.08c.12.07.22.15.29.26s.1.22.1.35c0,.12-.03.24-.09.35s-.14.19-.25.25c-.07.04-.16.08-.27.1-.1.02-.24.03-.4.03h-.37v1.04h-.28v-2.47ZM74.46,22.65v.94h.41c.23,0,.39-.04.5-.11.11-.08.16-.19.16-.35s-.05-.29-.16-.36c-.11-.08-.28-.11-.53-.11h-.39Z"/>
          <path d="M76.14,24.89h-.29l1.09-2.47h.33l1.09,2.47h-.3l-.34-.78h-1.25l-.34.78ZM77.64,23.89l-.53-1.24-.53,1.24h1.06Z"/>
          <path d="M78.59,24.89v-2.47h.41l.98,2.15.97-2.15h.41v2.47h-.27v-2.18l-.99,2.18h-.25l-.99-2.18v2.18h-.27Z"/>
          <path d="M81.82,22.41h.6c.17,0,.31,0,.41.02s.19.04.26.08c.12.07.22.15.29.26s.1.22.1.35c0,.12-.03.24-.09.35s-.14.19-.25.25c-.07.04-.16.08-.27.1-.1.02-.24.03-.4.03h-.37v1.04h-.28v-2.47ZM82.1,22.65v.94h.41c.23,0,.39-.04.5-.11.11-.08.16-.19.16-.35s-.05-.29-.16-.36c-.11-.08-.28-.11-.53-.11h-.39Z"/>
          <path d="M83.79,24.89h-.29l1.09-2.47h.33l1.09,2.47h-.3l-.34-.78h-1.25l-.34.78ZM85.28,23.89l-.53-1.24-.53,1.24h1.06Z"/>
        </g>
      </g>
    </g>
  </g>
</svg>